<svg fill="none" height="512" viewBox="0 0 33 32" width="512" xmlns="http://www.w3.org/2000/svg">
    <path d="m2.5 8c0-3.31371 2.68629-6 6-6h16c3.3137 0 6 2.68629 6 6v16c0 3.3137-2.6863 6-6 6h-16c-3.31371 0-6-2.6863-6-6z" fill="#fbe7e3" />
    <path clip-rule="evenodd" d="m11.1155 21.6347c.2929.2929.2929.7677 0 1.0606l-.64.64c-.2929.2929-.76773.2929-1.06062 0-.2929-.2929-.2929-.7677 0-1.0606l.64002-.64c.2929-.2929.7677-.2929 1.0606 0z" fill="#f9aa9d" fill-rule="evenodd" />
    <path d="m16.3204 12.7597-6.33377 6.937c-.78252.857-.75251 2.178.06807 2.9986.8207.8207 2.1416.8507 2.9987.0681l6.937-6.3337z" fill="#fc573b" />
    <g fill="#f9aa9d">
        <path clip-rule="evenodd" d="m15.5955 17.1547c.2929.2929.2929.7678 0 1.0607l-.64.64c-.2929.2928-.7678.2928-1.0606 0-.2929-.2929-.2929-.7678 0-1.0607l.64-.64c.2928-.2929.7677-.2929 1.0606 0z" fill-rule="evenodd" />
        <path
            clip-rule="evenodd"
            d="m22.2147 10.5353c-1.1209-1.12093-2.9384-1.12093-4.0593 0-1.121 1.121-1.121 2.9384 0 4.0594 1.1209 1.1209 2.9384 1.1209 4.0593 0 1.121-1.121 1.121-2.9384 0-4.0594zm-5.12-1.06063c1.7068-1.70674 4.4739-1.70674 6.1807 0 1.7067 1.70673 1.7067 4.47393 0 6.18063-1.7068 1.7068-4.4739 1.7068-6.1807 0-1.7067-1.7067-1.7067-4.4739 0-6.18063z"
            fill-rule="evenodd"
        />
        <path
            d="m12.7585 9.19658c-.127-.25409-.3867-.41459-.6708-.41459s-.5438.1605-.6708.41459l-.5839 1.16772-1.16768.5839c-.25409.127-.41459.3867-.41459.6708s.1605.5438.41459.6708l1.16768.5839.5839 1.1677c.127.2541.3867.4146.6708.4146s.5438-.1605.6708-.4146l.5839-1.1677 1.1677-.5839c.2541-.127.4146-.3867.4146-.6708s-.1605-.5438-.4146-.6708l-1.1677-.5839z"
        />
        <path
            d="m22.4978 17.5445c-.127-.2541-.3867-.4146-.6708-.4146s-.5438.1605-.6708.4146l-.5839 1.1678-1.1677.5838c-.2541.1271-.4146.3868-.4146.6708 0 .2841.1605.5438.4146.6709l1.1677.5838.5839 1.1677c.127.2541.3867.4146.6708.4146s.5438-.1605.6708-.4146l.5839-1.1677 1.1677-.5838c.2541-.1271.4146-.3868.4146-.6709 0-.284-.1605-.5437-.4146-.6708l-1.1677-.5838z"
        />
    </g>
</svg>
