<svg fill="none" height="512" viewBox="0 0 33 32" width="512" xmlns="http://www.w3.org/2000/svg">
    <path d="m2.5 8c0-3.31371 2.68629-6 6-6h16c3.3137 0 6 2.68629 6 6v16c0 3.3137-2.6863 6-6 6h-16c-3.31371 0-6-2.6863-6-6z" fill="#fbe7e3" />
    <path
        clip-rule="evenodd"
        d="m15.2142 8.75c-1.4793 0-2.6786 1.19924-2.6786 2.6786 0 1.4793 1.1993 2.6785 2.6786 2.6785 1.4794 0 2.6786-1.1992 2.6786-2.6785 0-1.47936-1.1992-2.6786-2.6786-2.6786zm-4.1786 2.6786c0-2.30779 1.8709-4.1786 4.1786-4.1786 2.3078 0 4.1786 1.87081 4.1786 4.1786 0 2.3077-1.8708 4.1785-4.1786 4.1785-2.3077 0-4.1786-1.8708-4.1786-4.1785z"
        fill="#fc573b"
        fill-rule="evenodd"
    />
    <path
        clip-rule="evenodd"
        d="m8.75 20.9524c0-2.848 2.0562-5.3214 4.7836-5.3214h3.3614c1.4652 0 2.7547.7296 3.6169 1.8368.2545.3268.1959.798-.1309 1.0525s-.7981.1959-1.0526-.1309c-.6159-.791-1.4892-1.2584-2.4334-1.2584h-3.3614c-1.728 0-3.2836 1.6199-3.2836 3.8214v2.2976h10.6786c.4142 0 .75.3358.75.75s-.3358.75-.75.75h-11.4286c-.41421 0-.75-.3358-.75-.75z"
        fill="#fc573b"
        fill-rule="evenodd"
    />
    <path
        d="m22.8402 15.739c-.2316-.1399-.5206-.1442-.7563-.0113-.2357.133-.3815.3826-.3815.6533v2.4326c-.2415-.0874-.5021-.135-.7738-.135-1.2558 0-2.2738 1.018-2.2738 2.2738s1.018 2.2738 2.2738 2.2738 2.2738-1.018 2.2738-2.2738c0-.0024 0-.0049 0-.0073v-3.2347l.386.2332c.3545.2142.8155.1004 1.0297-.2541s.1005-.8156-.254-1.0298z"
        fill="#f9aa9d"
    />
</svg>
