<svg fill="none" height="512" viewBox="0 0 33 32" width="512" xmlns="http://www.w3.org/2000/svg">
    <path d="m2.5 8c0-3.31371 2.68629-6 6-6h16c3.3137 0 6 2.68629 6 6v16c0 3.3137-2.6863 6-6 6h-16c-3.31371 0-6-2.6863-6-6z" fill="#fbe7e3" />
    <g clip-rule="evenodd" fill-rule="evenodd">
        <path
            d="m16.5002 8.75c-3.7937 0-6.8691 3.0754-6.8691 6.869 0 3.7937 3.0754 6.8691 6.8691 6.8691.4142 0 .75.3358.75.75s-.3358.75-.75.75c-4.6221 0-8.3691-3.747-8.3691-8.3691s3.747-8.369 8.3691-8.369c4.622 0 8.369 3.7469 8.369 8.369 0 .4143-.3358.75-.75.75s-.75-.3357-.75-.75c0-3.7936-3.0754-6.869-6.869-6.869z"
            fill="#fc573b"
        />
        <path
            d="m16.5001 14.0833c-.8482 0-1.5357.6876-1.5357 1.5357 0 .8482.6875 1.5358 1.5357 1.5358.8481 0 1.5357-.6876 1.5357-1.5358 0-.8481-.6876-1.5357-1.5357-1.5357zm-3.0357 1.5357c0-1.6765 1.3591-3.0357 3.0357-3.0357 1.6765 0 3.0357 1.3592 3.0357 3.0357 0 1.6766-1.3592 3.0358-3.0357 3.0358-1.6766 0-3.0357-1.3592-3.0357-3.0358z"
            fill="#fc573b"
        />
        <path d="m16.5001 11.0357c-2.5313 0-4.5834 2.052-4.5834 4.5834 0 .4142-.3357.75-.75.75-.4142 0-.75-.3358-.75-.75 0-3.3598 2.7236-6.08338 6.0834-6.08338.4142 0 .75.33579.75.74998 0 .4142-.3358.75-.75.75z" fill="#f9aa9d" />
    </g>
    <path
        d="m23.3598 16.5933c-1.4652-1.3188-3.8001-.2789-3.8001 1.6924v2.2247c-.6609-.2436-1.4133.0439-1.7357.6886l-.1701.3402c-.341.682-.1208 1.5112.5137 1.9341l.9583.6389c.6238.4159 1.3568.6378 2.1065.6378h.6011c1.6766 0 3.0357-1.3591 3.0357-3.0357v-3.1107c0-.415-.1761-.8104-.4845-1.088z"
        fill="#f9aa9d"
    />
</svg>
