<svg fill="none" height="512" viewBox="0 0 33 32" width="512" xmlns="http://www.w3.org/2000/svg">
    <path d="m2.5 8c0-3.31371 2.68629-6 6-6h16c3.3137 0 6 2.68629 6 6v16c0 3.3137-2.6863 6-6 6h-16c-3.31371 0-6-2.6863-6-6z" fill="#fbe7e3" />
    <path
        clip-rule="evenodd"
        d="m6.75 12.5263c0-1.5188 1.23122-2.74998 2.75-2.74998h14.5263c1.5188 0 2.75 1.23118 2.75 2.74998v9.4737c0 1.5188-1.2312 2.75-2.75 2.75h-14.5263c-1.51878 0-2.75-1.2312-2.75-2.75zm2.75-1.25c-.69036 0-1.25.5597-1.25 1.25v9.4737c0 .6904.55964 1.25 1.25 1.25h14.5263c.6904 0 1.25-.5596 1.25-1.25v-9.4737c0-.6903-.5596-1.25-1.25-1.25z"
        fill="#fc573b"
        fill-rule="evenodd"
    />
    <path d="m12.5527 14.8289c-1.8095 0-3.27633 1.4669-3.27633 3.2764 0 1.8094 1.46683 3.2763 3.27633 3.2763 1.8094 0 3.2763-1.4669 3.2763-3.2763 0-1.8095-1.4669-3.2764-3.2763-3.2764z" fill="#f9aa9d" />
    <path d="m20.9736 14.8289c-1.8095 0-3.2763 1.4669-3.2763 3.2764 0 1.8094 1.4668 3.2763 3.2763 3.2763 1.8094 0 3.2763-1.4669 3.2763-3.2763 0-1.8095-1.4669-3.2764-3.2763-3.2764z" fill="#f9aa9d" />
    <g clip-rule="evenodd" fill="#fc573b" fill-rule="evenodd">
        <path d="m14.3948 8.75c-.1381 0-.25.11193-.25.25v1.5263h-1.5v-1.5263c0-.9665.7835-1.75 1.75-1.75h4.7368c.9665 0 1.75.7835 1.75 1.75v1.5263h-1.5v-1.5263c0-.13807-.1119-.25-.25-.25z" />
        <path d="m12.2236 13.0526c0-.4142.3358-.75.75-.75h7.1579c.4142 0 .75.3358.75.75s-.3358.75-.75.75h-7.1579c-.4142 0-.75-.3358-.75-.75z" />
    </g>
</svg>
