<svg id="Calque_1" data-name="Calque 1" xmlns="http://www.w3.org/2000/svg" viewBox="0 0 434.42 434.42"><defs><style>.cls-1{fill:#fbe7e3;}.cls-2{fill:#f9aa9d;}.cls-3{fill:#fc573b;}</style></defs><path class="cls-1" d="M38.79,131.88a93.09,93.09,0,0,1,93.09-93.09H380.12a93.09,93.09,0,0,1,93.09,93.09V380.12a93.09,93.09,0,0,1-93.09,93.09H131.88a93.09,93.09,0,0,1-93.09-93.09Z" transform="translate(-38.79 -38.79)"/><path class="cls-2" d="M301.45,291.3c-39.86-18.42-95.65-10.27-98-9.92a9.62,9.62,0,0,0,2.87,19c.52-.08,52.39-7.67,87.07,8.36a9.62,9.62,0,0,0,8.07-17.46Z" transform="translate(-38.79 -38.79)"/><path class="cls-2" d="M312.65,256.68C267.38,235.76,203.9,245,201.22,245.44a9.61,9.61,0,0,0,2.87,19c.6-.09,60.51-8.79,100.49,9.69a9.62,9.62,0,0,0,8.07-17.46Z" transform="translate(-38.79 -38.79)"/><path class="cls-2" d="M320.18,220.51C270.18,197.4,200,207.66,197,208.1a9.62,9.62,0,0,0,2.87,19c.67-.11,67.54-9.82,112.25,10.84a9.51,9.51,0,0,0,4,.89,9.61,9.61,0,0,0,4-18.34Z" transform="translate(-38.79 -38.79)"/><path class="cls-3" d="M256,136.25A119.75,119.75,0,1,0,375.76,256,119.89,119.89,0,0,0,256,136.25Zm0,220.28A100.53,100.53,0,1,1,356.53,256,100.65,100.65,0,0,1,256,356.53Z" transform="translate(-38.79 -38.79)"/></svg>