<svg id="Capa_1" enable-background="new 0 0 512 512" height="512" viewBox="0 0 512 512" width="512" xmlns="http://www.w3.org/2000/svg">
    <g>
        <path d="m312.952 415.976h-280.996l-14.956-10c-3.866 0-7-3.134-7-7v-285.952c0-3.866 3.134-7 7-7l14.956-10h280.995c3.866 0 7 3.134 7 7v305.952c.001 3.866-3.133 7-6.999 7z" fill="#fbe7e3" />
        <path d="m57.667 96.024h-25.71l-14.956 10c-3.866 0-7 3.134-7 7v285.952c0 3.866 3.134 7 7 7l14.956 10h25.71z" fill="#f9aa9d" />
        <path d="m31.956 415.976v-319.952h-24.956c-3.866 0-7 3.134-7 7v305.866c0 3.899 3.186 7.133 7.085 7.086z" fill="#fc573b" />
        <path
            d="m236.39 164.5c-2.013-1.451-4.599-1.845-6.951-1.061l-95.869 31.949c-3.151 1.05-5.277 3.999-5.277 7.32v31.957 61.674c-4.755-2.853-10.314-4.498-16.252-4.498-17.47 0-31.683 14.213-31.683 31.683s14.213 31.683 31.683 31.683 31.683-14.213 31.683-31.683v-83.297l80.437-26.813v58.957c-4.755-2.853-10.314-4.498-16.251-4.498-17.47 0-31.683 14.213-31.683 31.683s14.213 31.683 31.683 31.683 31.683-14.213 31.683-31.683v-96.848-31.949c.001-2.48-1.192-4.809-3.203-6.259z"
            fill="#fc573b"
        />
    </g>
</svg>
