<svg id="Capa_1" enable-background="new 0 0 512 512" height="512" viewBox="0 0 512 512" width="512" xmlns="http://www.w3.org/2000/svg">
    <g>
        <g fill="#fbe7e3">
            <path
                d="m437.02 74.981c-48.353-48.353-112.64-74.981-181.02-74.981s-132.667 26.628-181.02 74.981c-48.351 48.352-74.98 112.639-74.98 181.019s26.629 132.667 74.98 181.019c48.353 48.353 112.64 74.981 181.02 74.981s132.667-26.628 181.02-74.981c48.351-48.352 74.98-112.639 74.98-181.019s-26.629-132.667-74.98-181.019zm-181.02 417.019c-130.131 0-236-105.869-236-236s105.869-236 236-236 236 105.869 236 236-105.869 236-236 236z"
            />
            <path d="m256 44c-116.897 0-212 95.103-212 212s95.103 212 212 212 212-95.103 212-212-95.103-212-212-212zm0 404c-105.869 0-192-86.131-192-192s86.131-192 192-192 192 86.131 192 192-86.131 192-192 192z" />
        </g>
        <g>
            <g>
                <g><path d="m303.787 339.238c-14.301 0-25.894-11.593-25.894-25.894v-114.688c0-14.301 11.593-25.894 25.894-25.894 14.301 0 25.894 11.593 25.894 25.894v114.688c0 14.301-11.593 25.894-25.894 25.894z" fill="#fc573b" /></g>
            </g>
            <g>
                <g><path d="m208.213 339.238c-14.301 0-25.894-11.593-25.894-25.894v-114.688c0-14.301 11.593-25.894 25.894-25.894 14.301 0 25.894 11.593 25.894 25.894v114.688c-.001 14.301-11.594 25.894-25.894 25.894z" fill="#fc573b" /></g>
            </g>
        </g>
    </g>
</svg>
