<svg id="Capa_1" enable-background="new 0 0 512 512" height="512" viewBox="0 0 512 512" width="512" xmlns="http://www.w3.org/2000/svg">
    <g>
        <g fill="#fbe7e3">
            <path
                d="m437.019 74.981c-48.352-48.353-112.639-74.981-181.019-74.981s-132.667 26.628-181.019 74.981c-48.353 48.352-74.981 112.639-74.981 181.019s26.628 132.667 74.981 181.019c48.352 48.353 112.639 74.981 181.019 74.981s132.667-26.628 181.019-74.981c48.353-48.352 74.981-112.639 74.981-181.019s-26.628-132.667-74.981-181.019zm-181.019 417.019c-130.131 0-236-105.869-236-236s105.869-236 236-236 236 105.869 236 236-105.869 236-236 236z"
            />
            <path d="m256 44c-116.897 0-212 95.103-212 212s95.103 212 212 212 212-95.103 212-212-95.103-212-212-212zm0 404c-105.869 0-192-86.131-192-192s86.131-192 192-192 192 86.131 192 192-86.131 192-192 192z" />
        </g>
        <g><path d="m231.371 175.285 106.61 66.886c10.199 6.399 10.199 21.259 0 27.658l-106.61 66.886c-10.872 6.821-25.001-.994-25.001-13.829v-133.772c0-12.835 14.129-20.65 25.001-13.829z" fill="#fc573b" /></g>
    </g>
</svg>
