<svg fill="none" height="512" viewBox="0 0 33 32" width="512" xmlns="http://www.w3.org/2000/svg">
    <path d="m2.5 8c0-3.31371 2.68629-6 6-6h16c3.3137 0 6 2.68629 6 6v16c0 3.3137-2.6863 6-6 6h-16c-3.31371 0-6-2.6863-6-6z" fill="#fbe7e3" />
    <path d="m16.5 7.25c-4.8325 0-8.75 3.9175-8.75 8.75s3.9175 8.75 8.75 8.75 8.75-3.9175 8.75-8.75-3.9175-8.75-8.75-8.75z" fill="#fc573b" />
    <g fill="#f9aa9d">
        <path
            d="m20.3445 8.13761-.2378.50526-.9459 2.83773c-.021.0629-.0161.1315.0135.1908l.6293 1.2586c.0424.0847.1289.1382.2236.1382h.634c.6147 0 1.1843.3225 1.5006.8496l.0149.0248c.0926.1544.3131.1632.4178.0167l.8474-1.1864c.0978-.1369.2148-.2589.3474-.3624l.5038-.3932c.2357.4602.4318.9441.5839 1.4471l-.1648.1286c-.019.0148-.0357.0322-.0497.0518l-.8474 1.1864c-.7325 1.0255-2.2762.9639-2.9247-.1168l-.0148-.0248c-.0452-.0753-.1266-.1214-.2144-.1214h-.634c-.6628 0-1.2688-.3745-1.5652-.9674l-.6293-1.2585c-.2076-.4152-.2417-.8958-.0949-1.3361l.9739-2.9218.2302-.48912c.4863.14104.9552.32316 1.4026.54233z"
        />
        <path
            d="m24.5378 19.4634-.9631-.1951-3.3298-.8324c-.9693-.2424-1.9445.3747-2.1404 1.3545l-.0339.1693c-.0189.0947-.0908.17-.1845.1935l-.4962.124c-.3899.0975-.7344.3262-.9755.6478l-.4279.5705c-.4667.6222-.4667 1.4777 0 2.1l.6621.8828.2393.2633c.6143-.0268 1.2121-.117 1.7872-.2641l-.869-.9558-.6196-.8262c-.0667-.0889-.0667-.2111 0-.3l.4279-.5705c.0344-.046.0836-.0787.1393-.0926l.4962-.124c.6561-.164 1.1589-.6914 1.2916-1.3546l.0338-.1692c.028-.14.1673-.2281.3058-.1935l3.3626.8406.5455.1105c.2888-.4339.5399-.8951.7486-1.3788z"
        />
        <path
            d="m12.0545 23.5382.0681-.0675c.4309-.4269.6099-1.0465.4733-1.6374l-.425-1.8379c-.0165-.0713-.0009-.1462.0426-.205l.6084-.8223c.446-.6026.4585-1.4224.0312-2.0385l-.1099-.1584c-.1293-.1863.0365-.4348.2582-.3868l.433.0936c.4083.0883.8346.0276 1.202-.171l1.6837-.9101c1.0721-.5795 1.2384-2.05.3228-2.8543l-4.0161-3.5276c-.1631-.14333-.3516-.25503-.5556-.3294l-.2398-.08739c-.5002.31616-.9661.68162-1.391 1.08956l1.1171.40713c.0292.0106.0561.0266.0794.0471l4.0161 3.5276c.1308.1149.107.325-.0461.4077l-1.6837.9102c-.0525.0283-.1134.037-.1718.0244l-.433-.0936c-1.5521-.3356-2.7128 1.4032-1.8077 2.708l.1099.1584c.0611.088.0593.2051-.0044.2912l-.6085.8222c-.3046.4117-.4136.9362-.2982 1.4353l.425 1.8378c.0195.0845-.0061.173-.0676.2339l-.2503.248c.3851.3294.7992.6258 1.2379.8851z"
        />
    </g>
</svg>
